<svg t="1613536487676" class="icon" viewBox="0 0 1024 1024" version="1.1" xmlns="http://www.w3.org/2000/svg" p-id="2188" width="48" height="48">
  <defs>
    <linearGradient id="grad1" x1="0%" y1="100%" x2="100%" y2="0%">
      <stop offset="0%" style="stop-color:rgb(255,59,59);stop-opacity:1" />
      <stop offset="100%" style="stop-color:rgb(253,213,213);stop-opacity:1" />
    </linearGradient>
  </defs>
  <path d="M512 308.05333333C389.12 308.05333333 293.54666667 410.45333333 293.54666667 533.33333333c0 61.44 27.30666667 122.88 75.09333333 163.84 13.65333333 13.65333333 34.13333333 13.65333333 47.78666667 0 13.65333333-13.65333333 13.65333333-34.13333333 0-47.78666667C375.46666667 622.08 354.98666667 581.12 354.98666667 533.33333333c0-88.74666667 68.26666667-157.01333333 157.01333333-157.01333333 88.74666667 0 157.01333333 68.26666667 157.01333333 157.01333333 0 88.74666667-68.26666667 157.01333333-157.01333333 157.01333333L505.17333333 690.34666666c-13.65333333 0-27.30666667 6.82666667-27.30666666 20.48-6.82666667 20.48-20.48 40.96-34.13333334 54.61333334-13.65333333 13.65333333-13.65333333 34.13333333 0 47.78666666 6.82666667 6.82666667 13.65333333 6.82666667 20.48 6.82666667 6.82666667 0 13.65333333 0 20.48-6.82666667 20.48-20.48 34.13333333-40.96 40.96-61.44 116.05333333-6.82666667 211.62666667-102.4 211.62666667-225.28C737.28 410.45333333 634.88 308.05333333 512 308.05333333zM95.57333333 533.33333333c0-122.88 40.96-238.93333333 122.88-327.68 13.65333333-13.65333333 13.65333333-34.13333333 0-47.78666667-13.65333333-13.65333333-34.13333333-13.65333333-47.78666666 0C81.92 267.09333333 34.13333333 396.8 34.13333333 533.33333333c0 136.53333333 47.78666667 266.24 143.36 368.64 6.82666667 6.82666667 13.65333333 13.65333333 27.30666667 13.65333333 6.82666667 0 13.65333333 0 20.48-6.82666666 13.65333333-13.65333333 13.65333333-34.13333333 0-47.78666667C143.36 772.26666666 95.57333333 656.21333333 95.57333333 533.33333333zM846.50666667 164.69333333c-13.65333333-13.65333333-34.13333333-13.65333333-47.78666667 0-13.65333333 13.65333333-13.65333333 34.13333333 0 47.78666667 81.92 88.74666667 122.88 211.62666667 122.88 327.68 0 122.88-40.96 238.93333333-122.88 327.68-13.65333333 13.65333333-13.65333333 34.13333333 0 47.78666666 6.82666667 6.82666667 13.65333333 6.82666667 20.48 6.82666667 6.82666667 0 20.48-6.82666667 27.30666667-13.65333333C942.08 799.57333333 989.86666667 669.86666666 989.86666667 533.33333333 989.86666667 396.8 942.08 267.09333333 846.50666667 164.69333333zM273.06666667 314.88C259.41333333 308.05333333 238.93333333 308.05333333 225.28 321.70666666c-40.96 61.44-68.26666667 136.53333333-68.26666667 211.62666667 0 75.09333333 20.48 150.18666667 68.26666667 211.62666667 6.82666667 6.82666667 13.65333333 13.65333333 27.30666667 13.65333333 6.82666667 0 13.65333333 0 20.48-6.82666667 13.65333333-13.65333333 20.48-27.30666667 6.82666666-47.78666666C245.76 656.21333333 225.28 594.77333333 225.28 533.33333333c0-61.44 20.48-122.88 54.61333333-170.66666667C286.72 349.01333333 286.72 328.53333333 273.06666667 314.88zM860.16 533.33333333c0-75.09333333-20.48-150.18666667-68.26666667-211.62666667-13.65333333-13.65333333-27.30666667-20.48-47.78666666-6.82666666-13.65333333 13.65333333-20.48 27.30666667-6.82666667 47.78666666 34.13333333 47.78666667 54.61333333 109.22666667 54.61333333 170.66666667 0 61.44-20.48 122.88-54.61333333 170.66666667-13.65333333 13.65333333-6.82666667 34.13333333 6.82666667 47.78666666 6.82666667 6.82666667 13.65333333 6.82666667 20.48 6.82666667 6.82666667 0 20.48-6.82666667 27.30666666-13.65333333C839.68 683.52 860.16 608.42666666 860.16 533.33333333z" fill="url(#grad1)" p-id="2189"></path>
</svg>