<svg t="1613531132770" class="icon" viewBox="0 0 1024 1024" version="1.1" xmlns="http://www.w3.org/2000/svg" p-id="2385" width="32px" height="32px">
  <defs>
    <linearGradient id="grad1" x1="0%" y1="100%" x2="100%" y2="0%">
      <stop offset="0%" style="stop-color:rgb(255,59,59);stop-opacity:1" />
      <stop offset="100%" style="stop-color:rgb(253,213,213);stop-opacity:1" />
    </linearGradient>
  </defs>
  <path d="M962 512c0-248.52272695-201.47727305-450-450-450C263.47727305 62 62 263.47727305 62 512c0 248.52272695 201.47727305 450 450 450C760.52272695 962 962 760.52272695 962 512zM438.97727305 653.17727305c0 11.00454521-3.06818174 26.46818174-6.62727305 34.40454521-10.14545479 22.05-42.34090869 40.99090869-68.31818174 40.99090869-15.87272695 0-28.22727305-4.41818174-35.71363652-12.76363652-5.72727305-7.03636347-9.69545479-17.18181826-9.69545479-26.46818174 0-19.84090869 14.97272695-37.92272695 39.23181826-47.61818174 9.69545479-3.96818174 18.53181826-5.72727305 26.87727305-5.72727304 13.66363653 0 26.01818174 2.20909131 34.81363653 6.17727304L419.54545479 374.09545479l256.17272695-62.18181827 0 278.63181827c0 22.05-7.48636347 39.68181826-22.05 53.34545479-15.87272695 14.11363652-35.71363653 22.5-54.65454521 22.5-15.87272695 0-27.77727305-4.41818174-35.26363653-12.76363653-5.72727305-7.03636347-9.69545479-17.18181826-9.69545479-26.46818174 0-17.18181826 11.45454521-33.50454521 30.43636348-43.65 10.14545479-5.27727305 26.01818174-10.14545479 34.40454522-10.14545478 13.66363653 0 26.87727305 2.20909131 37.47272695 6.62727305L656.36818174 384.24090869 438.97727305 438.44545479 438.97727305 653.17727305z" fill="url(#grad1)"  p-id="2386"></path>
</svg>