<svg t="1613531035906" class="icon" viewBox="0 0 1204 1024" version="1.1" xmlns="http://www.w3.org/2000/svg" p-id="2098" width="32px" height="32px">
  <defs>
    <linearGradient id="grad1" x1="0%" y1="100%" x2="100%" y2="0%">
      <stop offset="0%" style="stop-color:rgb(255,59,59);stop-opacity:1" />
      <stop offset="100%" style="stop-color:rgb(253,213,213);stop-opacity:1" />
    </linearGradient>
  </defs>
  <path d="M868.69117636 866.49411729c-0.34411729 39.01764727-17.20588271 77.90294092-83.40882363 77.85-149.21470547-0.13235273-567.60882364 0.52941182-639.82058818 0C64.56764727 943.76176455 62 903.89705908 62 866.49411729c0-180.26470547 122.95588271-341.76176455 288.0264709-388.2176464-72.63529453-38.85882363-109.03235273-111.09705908-109.03235361-194.69117636 0-122.02941182 100.56176455-221.29411729 224.23235361-221.29411817 123.64411729 0 224.23235273 99.26470547 224.23235274 221.29411817 0 83.64705908-39.89117636 155.83235273-112.55294093 194.69117636 165.22941182 46.42941182 293.55882364 209.59411729 291.78529366 388.2176464zM1120.8235291 783.00588271c0 40.87058818-29.46176455 73.8264709-78.16764639 72.97941182-24.45882363-0.07941182-22.55294092 0.47647089-44.86764726 0-39.09705908-0.84705908-36.52941182-24.51176455-49.23529453-72.97941182-31.28823545-119.14411729-163.58823545-275.13529453-193.76470547-293.18823544-79.54411729-47.54117637 21.44117637-15.90882363 21.44117637-168.85588272 0-39.25588271-8.94705908-88.59705908-24.96176455-121.76470547-12.52058818-25.99411729-22.87058818-49.9764709 24.96176455-48.44117637 95.10882363 2.99117636 172.27058818 76.23529453 172.27058818 170.20588184 0 58.92352911-30.30882364 110.85882363-76.36764727 141.43235274 9 2.06470547 18.13235273 4.23529453 28.29705909 6.93529453C1026.90588271 506.09705908 1120.8235291 656.76764727 1120.8235291 783.00588271z" fill="url(#grad1)"></path>
</svg>