<svg t="1613530593806" class="icon" viewBox="0 0 1024 1024" version="1.1" xmlns="http://www.w3.org/2000/svg" p-id="21234" data-spm-anchor-id="a313x.7781069.0.i9" width="32" height="32"><path d="M511.998465 66.861804c-245.825778 0-445.164802 199.284789-445.164802 445.138196s199.339024 445.138196 445.164802 445.138196c245.827825 0 445.165826-199.284789 445.165826-445.138196S757.825266 66.861804 511.998465 66.861804zM707.091792 539.869744 539.869233 539.869744l0 167.223582c0 15.404852-12.465916 27.869744-27.870768 27.869744-15.403828 0-27.869744-12.465916-27.869744-27.869744L484.128721 539.869744 316.906162 539.869744c-15.404852 0-27.870768-12.465916-27.870768-27.869744 0-15.405875 12.465916-27.869744 27.870768-27.869744l167.222559 0L484.128721 316.906673c0-15.404852 12.465916-27.869744 27.869744-27.869744 15.405875 0 27.870768 12.465916 27.870768 27.869744l0 167.223582 167.222559 0c15.405875 0 27.870768 12.464893 27.870768 27.869744C734.963583 527.404852 722.497667 539.869744 707.091792 539.869744z" p-id="21235" fill="#b8b8b8"></path></svg>