<svg t="1613534826236" class="icon" viewBox="0 0 1024 1024" version="1.1" xmlns="http://www.w3.org/2000/svg" p-id="2158" width="48" height="48">
  <defs>
    <linearGradient id="grad1" x1="0%" y1="100%" x2="100%" y2="0%">
      <stop offset="0%" style="stop-color:rgb(255,59,59);stop-opacity:1" />
      <stop offset="100%" style="stop-color:rgb(253,213,213);stop-opacity:1" />
    </linearGradient>
  </defs>
  <path d="M558.7832999 92.48893613l98.49220576 208.74582774c7.64878799 16.09901104 22.3347419 27.29098828 39.38985176 29.87807871l220.37367217 33.46344667c42.79243799 6.50990566 59.9529999 61.55587089 28.94307012 93.12821192L786.48940479 620.22015459c-12.30273809 12.51364219-17.88466552 30.59515195-14.9882502 48.27594375l37.62528838 229.47066827c7.33243183 44.54997187-37.47062461 78.61098076-75.77080576 57.57681445l-197.1179833-108.32736534a50.12486982 50.12486982 0 0 0-48.57823917 0l-197.1179833 108.33439483c-38.30018115 21.02010645-83.1032376-13.03387207-75.76377539-57.57681358l37.6252875-229.47769863c2.91750645-17.6807918-2.72066221-35.76933193-15.01637079-48.27594375L77.95011904 457.70450117C46.94721963 426.13216016 64.04450996 371.08619492 106.88615878 364.57628926l220.34555245-33.46344668c17.00589903-2.58709043 31.70591367-13.7790668 39.33361054-29.87807871L465.09970801 92.48893613c19.17821075-40.56388506 74.554592-40.56388506 93.67656152 1e-8z"  fill="url(#grad1)" p-id="2159"></path>
</svg>