<svg t="1613534891014" class="icon" viewBox="0 0 1025 1024" version="1.1" xmlns="http://www.w3.org/2000/svg" p-id="2302" width="56px" height="56px">
  <defs>
    <linearGradient id="grad1" x1="0%" y1="100%" x2="100%" y2="0%">
      <stop offset="0%" style="stop-color:rgb(255,59,59);stop-opacity:1" />
      <stop offset="100%" style="stop-color:rgb(253,213,213);stop-opacity:1" />
    </linearGradient>
  </defs>
  <path d="M519.9712 168.53333333c143.85706667 0 262.11093333 109.70986667 275.78346667 250.08853334l0.35626666 4.00426666 1.56373334 0.16426667c106.4064 12.12053333 189.32586667 101.69066667 191.09653333 211.00266667l0.0288 3.5712C988.8 756.64 892.18453333 853.33333333 773.00266667 853.33333333H253.13066667C133.94773333 853.33333333 37.33333333 756.64 37.33333333 637.36426667c0-108.54186667 80.00746667-198.38186667 184.21973334-213.67466667l2.12586666-0.29546667 0.02133334-0.2816C235.1392 282.09066667 352 170.896 495.3024 168.57066667l4.5824-0.03733334z m6.78613333 170.17066667c-7.6608-7.65546667-20.0768-7.65013333-27.7312 0.01066667L339.79946667 498.07146667c-7.66186667 7.66933333-7.66293333 20.096 0 27.76533333l0.01066666 0.01066667c7.66186667 7.6544 20.0768 7.65013333 27.7312-0.01066667L492.67733333 400.59733333l0.00106667 319.376c0 10.8352 8.78293333 19.61813333 19.61813333 19.61813334 10.83413333 0 19.61813333-8.78293333 19.61813334-19.61813334V399.43786667L658.74986667 526.37866667l0.2848 0.28053333c7.67466667 7.3792 19.87946667 7.29066667 27.44533333-0.2688l0.01066667-0.01173333c7.66293333-7.66933333 7.66293333-20.096 0-27.76533334L527.53066667 339.52a19.95413333 19.95413333 0 0 0-0.77226667-0.81493333z" fill="url(#grad1)"  p-id="2303"></path>
</svg>