<?xml version="1.0" standalone="no"?>
<!DOCTYPE svg PUBLIC "-//W3C//DTD SVG 1.1//EN" "http://www.w3.org/Graphics/SVG/1.1/DTD/svg11.dtd">
<svg t="1614133688249" class="icon" viewBox="0 0 1024 1024" version="1.1" xmlns="http://www.w3.org/2000/svg" p-id="23158" xmlns:xlink="http://www.w3.org/1999/xlink" width="48" height="48">
  <defs>
    <style type="text/css"></style>
  </defs>
    <defs>
    <linearGradient id="grad1" x1="0%" y1="100%" x2="100%" y2="0%">
      <stop offset="0%" style="stop-color:rgb(255,58,58);stop-opacity:1" />
      <stop offset="100%" style="stop-color:rgb(253,213,213);stop-opacity:1" />
    </linearGradient>
  </defs>
  <path d="M913.2032 187.3152C802.4064 76.8 622.7968 76.8 512 187.3152 401.2032 76.8 221.568 76.8 110.7968 187.3152a282.4704 282.4704 0 0 0 0 400.2048l367.7696 366.848a47.36 47.36 0 0 0 66.8928 0l367.744-366.848a282.4704 282.4704 0 0 0 0-400.2048z m-141.1584 365.184h-118.1952l-23.6544-94.336-94.5664 235.8272h-47.2832l-70.9376-353.7408-47.2832 212.2496H251.9296v-23.5776h94.5664l47.2832-212.2496h47.2832L512 670.4128l94.5408-235.8272h47.3088l23.6544 94.3616h94.5408v23.552z"  fill="url(#grad1)"  p-id="23159"></path>
</svg>