<?xml version="1.0" standalone="no"?>
<!DOCTYPE svg PUBLIC "-//W3C//DTD SVG 1.1//EN" "http://www.w3.org/Graphics/SVG/1.1/DTD/svg11.dtd">
<svg t="1614135976533" class="icon" viewBox="0 0 1024 1024" version="1.1" xmlns="http://www.w3.org/2000/svg" p-id="3027" xmlns:xlink="http://www.w3.org/1999/xlink" width="48" height="48">
  <defs>
    <style type="text/css"></style>
  </defs>
    <defs>
    <linearGradient id="grad1" x1="0%" y1="100%" x2="100%" y2="0%">
      <stop offset="0%" style="stop-color:rgb(255,58,58);stop-opacity:1" />
      <stop offset="100%" style="stop-color:rgb(253,213,213);stop-opacity:1" />
    </linearGradient>
  </defs>
  <path d="M512 962c79.99980469 0 152.49990234-20.00039062 217.50029297-55.00019531 34.99980469-19.99951172 162.50009766 55.00019531 192.49980469 27.50097656 27.50009766-27.50097656-45-155.00039063-25.00048828-190.00107422C937.00039063 676.99970703 962 596.99990234 962 512 962 264.5 759.5 62 512 62S62 264.5 62 512s202.5 450 450 450z m152.49990234-680.00009766h52.49970703l-37.49941406 152.49990235H641.99902344l22.5-152.49902344z m-10.00019531 169.99980469c7.50058594 0 15.00029297 2.50048828 20.00039063 7.50058594s7.49970703 12.49980469 7.49970703 19.99951172c0 10.00019531-2.49960937 17.49990234-10.00019532 22.5S657.00019531 512 649.49960937 512c-7.49970703 0-14.99941406-2.49960937-19.99951171-7.49970703s-7.49970703-12.50068359-7.49970704-20.00039063c0-10.00019531 2.49960937-17.49990234 9.99931641-22.5 5.00097656-7.49970703 12.50068359-10.00019531 22.5-10.00019531z m-57.49980469-180c7.49970703 0 12.49980469 2.50048828 17.49990235 7.50058594s7.50058594 9.99931641 7.50058593 17.49902344c0 7.50058594-2.50048828 15.00029297-7.50058593 20.00039062s-12.49980469 7.50058594-19.99951172 7.50058594c-7.50058594 0-12.50068359-2.50048828-17.49990235-7.50058594-5.00097656-5.00009766-7.50058594-9.99931641-7.50058593-17.49902344 0-7.50058594 2.50048828-15.00029297 7.50058593-20.00039062 4.99921875-5.00097656 12.49980469-7.50058594 19.99951172-7.50058594z m15.00029297 72.50097656L579.5 509.49951172h-47.49960937l32.4993164-165.00058594h47.50048828zM352.00039063 281.99902344H399.5l-17.49990234 87.50039062h82.50029296l17.49902344-87.50039062h47.50048828l-42.49951171 227.50048828H439.49902344l17.49990234-95.00097656h-82.49941406l-17.50078125 95.00097656h-49.99921875l45-227.50048828zM512 811.99970703c-124.99980469 0-225-97.49970703-225-154.99951172 0-57.49980469 100.00019531 2.49960937 225 2.49960938s225-59.99941406 225-2.49960938-100.00019531 154.99951172-225 154.99951172z"  fill="url(#grad1)"  p-id="3028"></path>
</svg>