<?xml version="1.0" standalone="no"?>
<!DOCTYPE svg PUBLIC "-//W3C//DTD SVG 1.1//EN" "http://www.w3.org/Graphics/SVG/1.1/DTD/svg11.dtd">
<svg t="1614135652430" class="icon" viewBox="0 0 1024 1024" version="1.1" xmlns="http://www.w3.org/2000/svg" p-id="3249" xmlns:xlink="http://www.w3.org/1999/xlink" width="48" height="48">
  <defs>
    <style type="text/css"></style>
  </defs>
  <defs>
    <linearGradient id="grad1" x1="0%" y1="100%" x2="100%" y2="0%">
      <stop offset="0%" style="stop-color:rgb(255,58,58);stop-opacity:1" />
      <stop offset="100%" style="stop-color:rgb(253,213,213);stop-opacity:1" />
    </linearGradient>
  </defs>
  <path d="M877.056 276.992h-64L493.056 98.304c-14.336-8.192-33.28-3.072-41.472 10.752s-3.584 31.744 11.264 39.936l231.424 128H147.456c-67.072 0-121.344 54.272-121.344 121.344v425.472c0 67.072 54.272 121.344 121.344 121.344h729.088c67.072 0 121.344-54.272 121.344-121.344V398.336c0.512-67.072-53.76-121.344-120.832-121.344zM360.448 762.88H178.176c-16.896 0-30.208-13.824-30.208-30.208 0-16.896 13.824-30.208 30.208-30.208h182.272c16.896 0 30.208 13.824 30.208 30.208s-13.824 30.208-30.208 30.208z m0-121.344H178.176c-16.896 0-30.208-13.824-30.208-30.208 0-16.896 13.824-30.208 30.208-30.208h182.272c16.896 0 30.208 13.824 30.208 30.208s-13.824 30.208-30.208 30.208z m0-121.856H178.176c-16.896 0-30.208-13.824-30.208-30.208 0-16.896 13.824-30.208 30.208-30.208h182.272c16.896 0 30.208 13.824 30.208 30.208 0 16.896-13.824 30.208-30.208 30.208z m303.616 273.408c-100.864 0-182.272-81.408-182.272-182.272 0-100.864 81.408-182.272 182.272-182.272 100.864 0 182.272 81.408 182.272 182.272 0 100.864-81.408 182.272-182.272 182.272z"  fill="url(#grad1)"  p-id="3250"></path>
  <path d="M664.064 489.472c-67.072 0-121.344 54.272-121.344 121.344s54.272 121.344 121.344 121.344 121.344-54.272 121.344-121.344c0.512-67.072-54.272-121.344-121.344-121.344z"  fill="url(#grad1)"  p-id="3251"></path>
</svg>