<?xml version="1.0" standalone="no"?>
<!DOCTYPE svg PUBLIC "-//W3C//DTD SVG 1.1//EN" "http://www.w3.org/Graphics/SVG/1.1/DTD/svg11.dtd">
<svg t="1614142295878" class="icon" viewBox="0 0 1024 1024" version="1.1" xmlns="http://www.w3.org/2000/svg" p-id="2884" xmlns:xlink="http://www.w3.org/1999/xlink" width="48" height="48">
  <defs>
    <style type="text/css"></style>
  </defs>
  <defs>
    <linearGradient id="grad1" x1="0%" y1="100%" x2="100%" y2="0%">
      <stop offset="0%" style="stop-color:rgb(255,58,58);stop-opacity:1" />
      <stop offset="100%" style="stop-color:rgb(253,213,213);stop-opacity:1" />
    </linearGradient>
  </defs>
  <path d="M422 482H182a60 60 0 0 1-60-60V182a60 60 0 0 1 60-60h240a60 60 0 0 1 60 60v240a60 60 0 0 1-60 60M842 482h-240a60 60 0 0 1-60-60V182a60 60 0 0 1 60-60h240a60 60 0 0 1 60 60v240a60 60 0 0 1-60 60M422 902H182a60 60 0 0 1-60-60v-240a60 60 0 0 1 60-60h240a60 60 0 0 1 60 60v240a60 60 0 0 1-60 60M842 902h-240a60 60 0 0 1-60-60v-240a60 60 0 0 1 60-60h240a60 60 0 0 1 60 60v240a60 60 0 0 1-60 60"  fill="url(#grad1)"  p-id="2885"></path>
</svg>