<?xml version="1.0" standalone="no"?>
<!DOCTYPE svg PUBLIC "-//W3C//DTD SVG 1.1//EN" "http://www.w3.org/Graphics/SVG/1.1/DTD/svg11.dtd">
<svg t="1614142582077" class="icon" viewBox="0 0 1181 1024" version="1.1" xmlns="http://www.w3.org/2000/svg" p-id="2885" xmlns:xlink="http://www.w3.org/1999/xlink" width="55.359375" height="48">
  <defs>
    <style type="text/css"></style>
  </defs>
  <defs>
    <linearGradient id="grad1" x1="0%" y1="100%" x2="100%" y2="0%">
      <stop offset="0%" style="stop-color:rgb(255,58,58);stop-opacity:1" />
      <stop offset="100%" style="stop-color:rgb(253,213,213);stop-opacity:1" />
    </linearGradient>
  </defs>
  <path d="M617.4208 137.54709334c-76.59008 0-147.56864 42.74688-185.23136 111.5392l-9.91744 18.11456-9.91744-18.11456C374.66624 180.29397334 303.06816 137.54709334 225.4848 137.54709334c-115.49184 0-209.46432 94.70464-209.46432 211.10272 0 53.41696 19.30752 103.12192 55.82336 143.7696l338.6112 340.26496c5.87776 4.90496 15.4624 5.52448 22.66624-0.61952l101.02272-101.55008-48.11264-48.3584c-36.80256-40.95488-56.04352-90.5728-56.04352-143.9232 0-116.41856 94.06464-211.14368 209.664-211.14368 70.18496 0 135.41888 34.92352 175.06816 92.42624a211.00544 211.00544 0 0 0 12.17024-70.86592c0-116.39808-93.9776-211.10272-209.46944-211.10272z"  fill="url(#grad1)"  p-id="2886"></path>
  <path d="M991.80032 361.00437334c-64.24576 0-123.8272 35.92192-155.48928 93.74208l-19.84512 36.22912-12.57472-22.95296-7.2704-13.27104c-31.66208-57.82528-91.81184-93.74208-156.97408-93.74208-96.90112 0-175.73376 79.50336-175.73376 177.22368 0 44.65664 16.1024 86.27712 46.57664 120.41728l55.54688 55.81312 0.00512-0.00512 247.808 249.02144c0.72192 0.53248 1.40288 0.83968 1.87904 0.83968s1.14688-0.3072 1.8688-0.83968l303.77984-305.26464c29.5424-32.24064 46.1568-75.10016 46.1568-119.9872 0-97.72032-78.83264-177.22368-175.73376-177.22368z"  fill="url(#grad1)"  p-id="2887"></path>
</svg>