<?xml version="1.0" standalone="no"?>
<!DOCTYPE svg PUBLIC "-//W3C//DTD SVG 1.1//EN" "http://www.w3.org/Graphics/SVG/1.1/DTD/svg11.dtd">
<svg t="1614142317990" class="icon" viewBox="0 0 1024 1024" version="1.1" xmlns="http://www.w3.org/2000/svg" p-id="2884" xmlns:xlink="http://www.w3.org/1999/xlink" width="48" height="48">
  <defs>
    <style type="text/css"></style>
  </defs>
  <defs>
    <linearGradient id="grad1" x1="0%" y1="100%" x2="100%" y2="0%">
      <stop offset="0%" style="stop-color:rgb(255,58,58);stop-opacity:1" />
      <stop offset="100%" style="stop-color:rgb(253,213,213);stop-opacity:1" />
    </linearGradient>
  </defs>
  <path d="M890.1875 382.71875l-148.78125 85.875c-18.75 10.78125-42.09375-2.71875-42.09375-24.28125v-50.25c0-30.84375-25.21875-56.15625-56.15625-56.15625H146.375c-30.84375 0-56.15625 25.21875-56.15625 56.15625v439.21875c0 30.84375 25.21875 56.15625 56.15625 56.15625h496.875c30.84375 0 56.15625-25.3125 56.15625-56.15625v-50.25c0-21.65625 23.4375-35.15625 42.09375-24.28125l148.78125 85.875c18.75 10.78125 42.09375-2.71875 42.09375-24.28125V407.09375c0-21.65625-23.4375-35.15625-42.1875-24.375zM216.5 506.375c-15 0-28.96875-8.0625-36.46875-21.09375a42.1875 42.1875 0 0 1 0-42.09375c7.5-13.03125 21.46875-21.09375 36.46875-21.09375 23.25 0 42.09375 18.84375 42.09375 42.09375 0.09375 23.34375-18.84375 42.1875-42.09375 42.1875z m0 0M222.96875 225.6875c0 20.0625 10.6875 38.625 28.03125 48.65625 17.34375 10.03125 38.8125 10.03125 56.15625 0s28.03125-28.59375 28.03125-48.65625-10.6875-38.625-28.03125-48.65625c-17.34375-10.03125-38.8125-10.03125-56.15625 0-17.34375 10.125-28.03125 28.59375-28.03125 48.65625z m0 0M397.4375 197.65625c0 30.09375 16.03125 57.84375 42.09375 72.9375a84.375 84.375 0 0 0 84.1875 0c26.0625-15 42.09375-42.84375 42.09375-72.9375 0-46.5-37.6875-84.1875-84.1875-84.1875s-84.1875 37.6875-84.1875 84.1875z m0 0"  fill="url(#grad1)"  p-id="2885"></path>
</svg>