<?xml version="1.0" standalone="no"?>
<!DOCTYPE svg PUBLIC "-//W3C//DTD SVG 1.1//EN" "http://www.w3.org/Graphics/SVG/1.1/DTD/svg11.dtd">
<svg t="1614134025559" class="icon" viewBox="0 0 1024 1024" version="1.1" xmlns="http://www.w3.org/2000/svg" p-id="2955" xmlns:xlink="http://www.w3.org/1999/xlink" width="48" height="48">
  <defs>
    <linearGradient id="grad1" x1="0%" y1="100%" x2="100%" y2="0%">
      <stop offset="0%" style="stop-color:rgb(255,58,58);stop-opacity:1" />
      <stop offset="100%" style="stop-color:rgb(253,213,213);stop-opacity:1" />
    </linearGradient>
  </defs>
  <path d="M518 61c246.319 0 446 199.681 446 446S764.319 953 518 953 72 753.319 72 507 271.681 61 518 61z m216.103 520.552H322.588v0.164c0 113.637 92.12 205.758 205.757 205.758s205.758-92.12 205.758-205.758v-0.164z m-342.546-258.47c-38.09 0-68.97 30.879-68.97 68.97 0 38.09 30.88 68.969 68.97 68.969s68.969-30.879 68.969-68.97c0-38.09-30.879-68.969-68.97-68.969z m273.577 0c-38.09 0-68.97 30.879-68.97 68.97 0 38.09 30.88 68.969 68.97 68.969s68.97-30.879 68.97-68.97c0-38.09-30.88-68.969-68.97-68.969z" fill="url(#grad1)" p-id="2956"></path>
</svg>