<?xml version="1.0" standalone="no"?>
<!DOCTYPE svg PUBLIC "-//W3C//DTD SVG 1.1//EN" "http://www.w3.org/Graphics/SVG/1.1/DTD/svg11.dtd">
<svg t="1614134138331" class="icon" viewBox="0 0 1024 1024" version="1.1" xmlns="http://www.w3.org/2000/svg" p-id="2733" xmlns:xlink="http://www.w3.org/1999/xlink" width="48" height="48">
  <defs>
    <style type="text/css"></style>
  </defs>
  <defs>
    <linearGradient id="grad1" x1="0%" y1="100%" x2="100%" y2="0%">
      <stop offset="0%" style="stop-color:rgb(255,58,58);stop-opacity:1" />
      <stop offset="100%" style="stop-color:rgb(253,213,213);stop-opacity:1" />
    </linearGradient>
  </defs>
  <path d="M512 62C262.25 62 62 264.5 62 512c0 241.2 192.15 439.65 431.55 450h263.7c20.25 0 40.95-20.25 40.95-40.95v-61.2c100.35-81.9 163.8-206.55 163.8-347.85C962 264.5 761.75 62 512 62zM398.15 573.2c-28.8 0-51.3-22.5-51.3-51.3s22.5-51.3 51.3-51.3 51.3 22.5 51.3 51.3-22.5 51.3-51.3 51.3z m271.35 0c-28.8 0-51.3-22.5-51.3-51.3s22.5-51.3 51.3-51.3 51.3 22.5 51.3 51.3-22.5 51.3-51.3 51.3z"  fill="url(#grad1)"  p-id="2734"></path>
</svg>