<?xml version="1.0" standalone="no"?>
<!DOCTYPE svg PUBLIC "-//W3C//DTD SVG 1.1//EN" "http://www.w3.org/Graphics/SVG/1.1/DTD/svg11.dtd">
<svg t="1614135727623" class="icon" viewBox="0 0 1025 1024" version="1.1" xmlns="http://www.w3.org/2000/svg" p-id="2854" xmlns:xlink="http://www.w3.org/1999/xlink" width="48.046875" height="48">
  <defs>
    <style type="text/css"></style>
  </defs>
  <defs>
    <linearGradient id="grad1" x1="0%" y1="100%" x2="100%" y2="0%">
      <stop offset="0%" style="stop-color:rgb(255,58,58);stop-opacity:1" />
      <stop offset="100%" style="stop-color:rgb(253,213,213);stop-opacity:1" />
    </linearGradient>
  </defs>
  <path d="M194.05728916 830.13012266A450.29513232 450.29513232 0 0 1 487.86612823 62.04499737a26.99865 26.99865 0 0 1 21.81067382 9.15836572 27.73978945 27.73978945 0 0 1 6.56437764 22.60475243 471.47054414 471.47054414 0 0 0-6.40556192 77.39613018c0 133.08746309 30.75728555 233.67066943 89.09554483 290.63252725a226.52396807 226.52396807 0 0 0 170.30324971 58.86764473 222.97708652 222.97708652 0 0 0 146.90441952-60.93224737 27.26334229 27.26334229 0 0 1 45.6330129 17.9991c0.79407773 11.17003008 1.21758574 22.65769072 1.21758574 33.77478164a450.50688633 450.50688633 0 0 1-768.93214131 318.58407071z m444.68364814-470.20001924a27.21040401 27.21040401 0 0 1-19.05787089-46.63884463l144.83981689-142.35170537h-128.11124179a27.26334229 27.26334229 0 1 1 0-54.47374717h194.86672734a27.31628145 27.31628145 0 0 1 24.98698564 16.83445254 26.99865 26.99865 0 0 1-6.14086875 29.69851465L705.49642286 305.56223369H866.85306084a27.26334229 27.26334229 0 1 1 0 54.47374717z" fill="url(#grad1)" p-id="2855"></path>
</svg>