<?xml version="1.0" standalone="no"?><!DOCTYPE svg PUBLIC "-//W3C//DTD SVG 1.1//EN" "http://www.w3.org/Graphics/SVG/1.1/DTD/svg11.dtd"><svg class="icon" width="48px" height="48.00px" viewBox="0 0 1024 1024" version="1.1" xmlns="http://www.w3.org/2000/svg"><path fill="#E60026" d="M962.645255 109.89233a43.350032 43.350032 0 0 0-48.132985 37.967403l-7.983631 67.6694H467.139942l12.419784-52.634164a43.364482 43.364482 0 0 0-84.388062-19.912114L276.883878 644.282622c-26.067819-20.360065-58.760968-32.620899-94.322444-32.620899C97.826572 611.661723 28.900021 680.595498 28.900021 765.323136s68.92655 153.654188 153.661413 153.654187c82.55291 0 149.926085-65.494673 153.329062-147.223933l68.17515-288.899061h470.93307L857.030128 635.150215a152.519862 152.519862 0 0 0-81.274085-23.488492c-84.727637 0-153.661413 68.92655-153.661412 153.661413 0 84.727637 68.933775 153.654188 153.661412 153.654187s153.661413-68.92655 153.661413-153.654187c0-0.888676-0.122825-1.748451-0.137275-2.637127l71.339702-604.667918a43.350032 43.350032 0 0 0-37.974628-48.125761z m-780.083821 722.38493c-36.919777 0-66.961349-30.041572-66.961349-66.954124 0-36.919777 30.034347-66.961349 66.961349-66.96135 36.919777 0 66.954124 30.034347 66.954124 66.96135 0 36.919777-30.034347 66.954124-66.954124 66.954124z m593.194609 0c-36.919777 0-66.961349-30.041572-66.961349-66.954124 0-36.919777 30.034347-66.961349 66.961349-66.96135 34.831751 0 63.507797 26.739745 66.643449 60.76952l-0.13005 1.112651a43.487307 43.487307 0 0 0 0.1445 10.974783c-2.998377 34.159825-31.724998 61.05852-66.657899 61.05852z m109.466055-436.122995H424.519636l22.238566-94.250194c1.661751 0.195075 3.345177 0.325125 5.057504 0.325125h444.48955l-11.083158 93.925069z"  /></svg>